<svg xmlns="http://www.w3.org/2000/svg" xmlns:xlink="http://www.w3.org/1999/xlink" width="500" zoomAndPan="magnify" viewBox="0 0 375 374.999991" height="500" preserveAspectRatio="xMidYMid meet" version="1.0"><defs><clipPath id="ee7ccd0a65"><path d="M 10.675781 140.710938 L 364.402344 140.710938 L 364.402344 342.714844 L 10.675781 342.714844 Z M 10.675781 140.710938 " clip-rule="nonzero"/></clipPath><clipPath id="1563baee09"><path d="M 142 32.214844 L 233 32.214844 L 233 124 L 142 124 Z M 142 32.214844 " clip-rule="nonzero"/></clipPath></defs><g clip-path="url(#ee7ccd0a65)"><path fill="#000000" d="M 124.089844 195.953125 C 123.984375 197.226562 123.933594 198.515625 123.933594 199.8125 L 123.933594 285.15625 C 123.933594 295.25 132.148438 303.460938 142.246094 303.460938 C 152.339844 303.460938 160.554688 295.25 160.554688 285.15625 L 160.554688 234.800781 C 160.554688 214.167969 144.414062 197.234375 124.089844 195.953125 Z M 250.988281 195.953125 C 230.664062 197.234375 214.523438 214.167969 214.523438 234.800781 L 214.523438 285.15625 C 214.523438 295.25 222.738281 303.460938 232.832031 303.460938 C 242.929688 303.460938 251.144531 295.25 251.144531 285.15625 L 251.144531 199.8125 C 251.144531 198.515625 251.089844 197.226562 250.988281 195.953125 Z M 358.601562 342.71875 C 355.398438 342.71875 352.800781 340.125 352.800781 336.921875 L 352.800781 234.800781 C 352.800781 213.335938 335.335938 195.875 313.859375 195.875 L 262.617188 195.875 C 262.703125 197.179688 262.742188 198.492188 262.742188 199.8125 L 262.742188 285.15625 C 262.742188 301.644531 249.324219 315.054688 232.832031 315.054688 C 216.339844 315.054688 202.921875 301.644531 202.921875 285.15625 L 202.921875 234.800781 C 202.921875 221.304688 208.179688 208.617188 217.726562 199.078125 C 226.117188 190.6875 236.941406 185.613281 248.613281 184.507812 C 242.226562 165.828125 224.492188 152.359375 203.671875 152.359375 L 171.40625 152.359375 C 150.585938 152.359375 132.851562 165.828125 126.464844 184.507812 C 138.132812 185.613281 148.957031 190.6875 157.351562 199.078125 C 166.898438 208.617188 172.15625 221.304688 172.15625 234.800781 L 172.15625 285.15625 C 172.15625 301.644531 158.738281 315.054688 142.246094 315.054688 C 125.75 315.054688 112.332031 301.644531 112.332031 285.15625 L 112.332031 199.8125 C 112.332031 198.492188 112.375 197.179688 112.460938 195.875 L 61.214844 195.875 C 39.742188 195.875 22.273438 213.335938 22.273438 234.800781 L 22.273438 336.921875 C 22.273438 340.125 19.679688 342.71875 16.476562 342.71875 C 13.269531 342.71875 10.675781 340.125 10.675781 336.921875 L 10.675781 234.800781 C 10.675781 221.304688 15.933594 208.617188 25.476562 199.078125 C 35.023438 189.535156 47.714844 184.28125 61.214844 184.28125 L 114.386719 184.28125 C 117.050781 174.453125 122.242188 165.449219 129.636719 158.058594 C 140.792969 146.90625 155.628906 140.761719 171.40625 140.761719 L 203.671875 140.761719 C 219.449219 140.761719 234.285156 146.90625 245.441406 158.058594 C 252.835938 165.449219 258.027344 174.453125 260.691406 184.28125 L 313.859375 184.28125 C 327.359375 184.28125 340.054688 189.535156 349.601562 199.078125 C 359.148438 208.617188 364.402344 221.304688 364.402344 234.800781 L 364.402344 336.921875 C 364.402344 340.125 361.804688 342.71875 358.601562 342.71875 " fill-opacity="1" fill-rule="nonzero"/></g><g clip-path="url(#1563baee09)"><path fill="#000000" d="M 187.539062 43.8125 C 168.882812 43.8125 153.703125 58.984375 153.703125 77.632812 C 153.703125 96.28125 168.882812 111.453125 187.539062 111.453125 C 206.195312 111.453125 221.375 96.28125 221.375 77.632812 C 221.375 58.984375 206.195312 43.8125 187.539062 43.8125 Z M 187.539062 123.050781 C 175.402344 123.050781 163.992188 118.324219 155.410156 109.746094 C 146.828125 101.167969 142.101562 89.761719 142.101562 77.632812 C 142.101562 65.5 146.828125 54.097656 155.410156 45.519531 C 163.992188 36.941406 175.402344 32.214844 187.539062 32.214844 C 199.675781 32.214844 211.085938 36.941406 219.667969 45.519531 C 228.246094 54.097656 232.972656 65.5 232.972656 77.632812 C 232.972656 89.761719 228.246094 101.167969 219.667969 109.746094 C 211.085938 118.324219 199.675781 123.050781 187.539062 123.050781 " fill-opacity="1" fill-rule="nonzero"/></g><path fill="#000000" d="M 287.789062 84.78125 C 269.128906 84.78125 253.949219 99.957031 253.949219 118.605469 C 253.949219 137.253906 269.128906 152.425781 287.789062 152.425781 C 306.445312 152.425781 321.621094 137.253906 321.621094 118.605469 C 321.621094 99.957031 306.445312 84.78125 287.789062 84.78125 Z M 287.789062 164.019531 C 275.652344 164.019531 264.242188 159.296875 255.660156 150.71875 C 247.078125 142.140625 242.351562 130.734375 242.351562 118.605469 C 242.351562 106.472656 247.078125 95.066406 255.660156 86.488281 C 264.242188 77.910156 275.652344 73.1875 287.789062 73.1875 C 299.921875 73.1875 311.332031 77.910156 319.914062 86.488281 C 328.496094 95.066406 333.222656 106.472656 333.222656 118.605469 C 333.222656 130.734375 328.496094 142.140625 319.914062 150.71875 C 311.332031 159.296875 299.921875 164.019531 287.789062 164.019531 " fill-opacity="1" fill-rule="nonzero"/><path fill="#000000" d="M 87.292969 84.78125 C 68.632812 84.78125 53.457031 99.957031 53.457031 118.605469 C 53.457031 137.25 68.632812 152.425781 87.292969 152.425781 C 105.949219 152.425781 121.125 137.25 121.125 118.605469 C 121.125 99.957031 105.949219 84.78125 87.292969 84.78125 Z M 87.292969 164.019531 C 75.15625 164.019531 63.746094 159.296875 55.164062 150.71875 C 46.582031 142.140625 41.855469 130.734375 41.855469 118.605469 C 41.855469 106.472656 46.582031 95.066406 55.164062 86.488281 C 63.746094 77.910156 75.15625 73.1875 87.292969 73.1875 C 99.425781 73.1875 110.835938 77.910156 119.417969 86.488281 C 128 95.066406 132.726562 106.472656 132.726562 118.605469 C 132.726562 130.734375 128 142.140625 119.417969 150.71875 C 110.835938 159.296875 99.425781 164.019531 87.292969 164.019531 " fill-opacity="1" fill-rule="nonzero"/></svg>